<svg width="348" height="42" viewBox="0 0 348 42" fill="none" xmlns="http://www.w3.org/2000/svg">
<path d="M49.1525 9.76137H30.0336V40.7812H19.9118V9.76137H0.792969V1.22949H49.1525V9.76137Z" fill="white"/>
<path d="M107.014 1.22949V40.7812H96.8927V25.2996H64.8405V40.7812H54.7188V1.22949H64.8405V16.7112H96.8927V1.22949H107.014Z" fill="white"/>
<path d="M123.885 9.30935V17.3327H155.375V24.678H123.885V32.7014H155.375V40.7812H113.764V1.22949H155.375V9.30935H123.885Z" fill="white"/>
<path d="M178.205 20.9485C178.205 7.83988 185.628 0.664062 202.947 0.664062C220.267 0.664062 227.689 7.89638 227.689 20.9485C227.689 34.0005 220.21 41.3459 202.947 41.3459C185.684 41.3459 178.205 34.1135 178.205 20.9485ZM217.567 20.9485C217.567 12.9251 213.519 9.19594 202.947 9.19594C192.376 9.19594 188.327 12.8686 188.327 20.9485C188.327 29.0283 192.432 32.814 202.947 32.814C213.463 32.814 217.567 29.0283 217.567 20.9485Z" fill="white"/>
<path d="M284.315 1.22949V40.7812H270.538L243.715 11.1174V40.7812H233.594V1.22949H247.314L274.193 30.9498V1.22949H284.315Z" fill="white"/>
<path d="M301.184 9.30935V17.3327H332.674V24.678H301.184V32.7014H332.674V40.7812H291.062V1.22949H332.674V9.30935H301.184Z" fill="white"/>
<path d="M347.117 38.0218C347.117 39.0295 346.845 39.9617 346.386 40.781H336.733C336.274 39.9617 336.002 39.0295 336.002 38.0218C336.002 34.9424 338.486 32.4375 341.56 32.4375C344.634 32.4375 347.117 34.933 347.117 38.0218Z" fill="white"/>
</svg>
